<svg width="48" height="48" viewBox="0 0 48 48" fill="none" xmlns="http://www.w3.org/2000/svg">
<path d="M24.0345 21.0643C26.7769 21.0643 29 18.8113 29 16.0321C29 13.253 26.7769 11 24.0345 11C21.2922 11 19.0691 13.253 19.0691 16.0321C19.0691 16.2608 19.0841 16.4859 19.1133 16.7065L5.66193 21.9734C5.129 22.1821 4.86389 22.7891 5.0698 23.3292C5.2757 23.8693 5.87464 24.1379 6.40757 23.9293L19.8118 18.6808C20.6874 20.1115 22.2512 21.0643 24.0345 21.0643Z" fill="white"/>
<path d="M15.7189 21.5684C15.7314 21.5605 15.7446 21.5538 15.7584 21.5485C15.8481 21.5139 15.9497 21.5402 16.0132 21.6124C17.4514 23.2482 19.5626 24.2834 21.9166 24.2834C23.7003 24.2834 25.3452 23.6894 26.6637 22.6885C28.4614 21.324 30.9157 20.193 32.5408 21.7587C34.6561 23.7967 36 26.6327 36 29.6947C36 35.6719 26.8164 37 20.8333 37C14.8502 37 10 35.6719 10 29.6947C10 26.5362 12.4888 23.6181 15.7189 21.5684Z" fill="white"/>
</svg>
