<svg width="48" height="48" viewBox="0 0 48 48" fill="none" xmlns="http://www.w3.org/2000/svg">
<path fill-rule="evenodd" clip-rule="evenodd" d="M20.25 11C19.4216 11 18.75 11.6847 18.75 12.5294C16.6789 12.5294 15 14.2412 15 16.3529V33.1765C15 35.2882 16.6789 37 18.75 37H25.5C29.6422 37 33 33.5763 33 29.3529V16.3529C33 14.2412 31.3211 12.5294 29.25 12.5294C29.25 11.6847 28.5784 11 27.75 11H20.25ZM20.25 13.2941C20.25 12.8718 20.5858 12.5294 21 12.5294H27C27.4142 12.5294 27.75 12.8718 27.75 13.2941C27.75 13.7164 27.4142 14.0588 27 14.0588H21C20.5858 14.0588 20.25 13.7164 20.25 13.2941ZM19.6941 25.0151C19.446 24.7725 19.4341 24.367 19.6675 24.1092C19.9008 23.8515 20.2912 23.8391 20.5393 24.0816L22.7855 26.2769L27.434 21.1429C27.6674 20.8852 28.0578 20.8728 28.3059 21.1153C28.554 21.3577 28.5659 21.7633 28.3325 22.021L23.2614 27.6218C23.0279 27.8795 22.6375 27.892 22.3894 27.6494L19.6941 25.0151Z" fill="white"/>
</svg>
