<svg width="48" height="48" viewBox="0 0 48 48" fill="none" xmlns="http://www.w3.org/2000/svg">
<path fill-rule="evenodd" clip-rule="evenodd" d="M30.1738 19.0656C29.3868 15.7525 28.4422 14.6155 26.7 12.7863C24.9946 10.9957 22.2908 10.9991 21.5417 11L21.496 11.0001C24.2853 14.5757 21.7928 16.355 18.2548 18.8808L17.996 19.0656C15.2405 21.0353 14 24.4177 14 26.8262C14 32.445 18.4771 37 24 37C29.5229 37 34 32.445 34 26.8262C34 23.5418 32.4702 18.8827 30.096 15.5783C30.527 17.4797 30.632 18.8501 30.1738 19.0656ZM21.403 26.3364C21.7336 24.8844 22.1303 24.3861 22.862 23.5845C23.5782 22.7998 24.7138 22.8013 25.0285 22.8017H25.0477C23.8762 24.3687 24.923 25.1485 26.409 26.2555L26.5177 26.3364C27.675 27.1997 28.196 28.682 28.196 29.7376C28.196 32.2001 26.3156 34.1963 23.996 34.1963C21.6764 34.1963 19.796 32.2001 19.796 29.7376C19.796 28.2981 20.4385 26.2563 21.4357 24.8081C21.2547 25.6414 21.2106 26.242 21.403 26.3364Z" fill="white"/>
</svg>
