<svg width="48" height="48" viewBox="0 0 48 48" fill="none" xmlns="http://www.w3.org/2000/svg">
<path fill-rule="evenodd" clip-rule="evenodd" d="M20.5385 18C20.4449 18 20.3539 18.0113 20.2668 18.0325C19.4409 18.234 18.6958 19.1667 17.8462 19.1667H15.3462C11.8413 19.1667 9 22.0395 9 25.5833C9 29.1271 11.8413 32 15.3462 32C17.476 32 19.3607 30.9391 20.5118 29.3115C21.2626 28.2499 22.3445 27.3333 23.6353 27.3333H24.3647C25.6555 27.3333 26.7374 28.2499 27.4882 29.3115C28.6393 30.9391 30.524 32 32.6538 32C36.1587 32 39 29.1271 39 25.5833C39 22.2404 36.4717 19.4945 33.2431 19.1939C33.2361 19.1933 33.2308 19.1874 33.2308 19.1803C33.2308 19.1728 33.2247 19.1667 33.2172 19.1667H30.7308C29.8811 19.1667 29.136 18.234 28.3101 18.0325C28.223 18.0113 28.132 18 28.0385 18H20.5385ZM36.1154 23.5417C36.1154 24.3471 35.4697 25 34.6731 25C33.8765 25 33.2308 24.3471 33.2308 23.5417C33.2308 22.7362 33.8765 22.0833 34.6731 22.0833C35.4697 22.0833 36.1154 22.7362 36.1154 23.5417ZM33.2308 26.4583C33.2308 27.2638 32.585 27.9167 31.7885 27.9167C30.9919 27.9167 30.3462 27.2638 30.3462 26.4583C30.3462 25.6529 30.9919 25 31.7885 25C32.585 25 33.2308 25.6529 33.2308 26.4583ZM16.6923 22.5694C16.6923 21.9788 16.2188 21.5 15.6346 21.5C15.0505 21.5 14.5769 21.9788 14.5769 22.5694C14.5769 23.1601 14.1034 23.6389 13.5192 23.6389C12.9351 23.6389 12.4615 24.1177 12.4615 24.7083C12.4615 25.299 12.9351 25.7778 13.5192 25.7778C14.1034 25.7778 14.5769 26.2566 14.5769 26.8472C14.5769 27.4379 15.0505 27.9167 15.6346 27.9167C16.2188 27.9167 16.6923 27.4379 16.6923 26.8472C16.6923 26.2566 17.1659 25.7778 17.75 25.7778C18.3342 25.7778 18.8077 25.299 18.8077 24.7083C18.8077 24.1177 18.3342 23.6389 17.75 23.6389C17.1659 23.6389 16.6923 23.1601 16.6923 22.5694Z" fill="white"/>
</svg>
