<svg width="48" height="48" viewBox="0 0 48 48" fill="none" xmlns="http://www.w3.org/2000/svg">
<path d="M24 12C21.6346 12 19.448 12.5864 17.4404 13.7592C15.4725 14.9121 13.9121 16.4725 12.7592 18.4404C11.5864 20.448 11 22.6346 11 25C11 27.3654 11.5864 29.552 12.7592 31.5596C13.9121 33.5275 15.4725 35.0879 17.4404 36.2408C19.448 37.4136 21.6346 38 24 38C26.3654 38 28.552 37.4136 30.5596 36.2408C32.5275 35.0879 34.0879 33.5275 35.2408 31.5596C36.4136 29.552 37 27.3704 37 25.0149C37 22.6594 36.4136 20.4679 35.2408 18.4404C34.0879 16.4725 32.5275 14.9121 30.5596 13.7592C28.552 12.5864 26.3654 12 24 12ZM27.9358 19.3349C28.4327 19.3349 28.8601 19.6529 29.2179 20.289C29.5757 20.9251 29.7546 21.6904 29.7546 22.5849C29.7546 23.4794 29.5757 24.2446 29.2179 24.8807C28.8601 25.5168 28.4278 25.8349 27.9209 25.8349C27.414 25.8349 26.9866 25.5168 26.6388 24.8807C26.2909 24.2446 26.117 23.4794 26.117 22.5849C26.117 21.6904 26.2909 20.9251 26.6388 20.289C26.9866 19.6529 27.419 19.3349 27.9358 19.3349ZM20.0642 19.3349C20.581 19.3349 21.0134 19.6529 21.3612 20.289C21.7091 20.9251 21.883 21.6904 21.883 22.5849C21.883 23.4794 21.7091 24.2446 21.3612 24.8807C21.0134 25.5168 20.586 25.8349 20.0791 25.8349C19.5722 25.8349 19.1449 25.5168 18.797 24.8807C18.4492 24.2446 18.2752 23.4794 18.2752 22.5849C18.2752 21.6904 18.4492 20.9251 18.797 20.289C19.1449 19.6529 19.5673 19.3349 20.0642 19.3349ZM32.1399 29.7408C31.961 30.039 31.5535 30.0688 30.9174 29.8303C30.1621 31.0826 29.1881 32.0765 27.9954 32.8119C26.763 33.5673 25.4312 33.945 24 33.945C22.5688 33.945 21.237 33.5673 20.0046 32.8119C18.8119 32.0765 17.8379 31.0826 17.0826 29.8303C16.4465 30.0688 16.039 30.039 15.8601 29.7408C15.7408 29.542 15.7706 29.3135 15.9495 29.055C16.1284 28.7569 16.4763 28.4587 16.9931 28.1606C17.5099 27.8624 17.9472 27.6934 18.305 27.6537C18.6628 27.6139 18.8914 27.6835 18.9908 27.8624C19.0703 28.0015 19.0654 28.1755 18.9759 28.3842C18.8865 28.5929 18.7125 28.8066 18.4541 29.0252C19.0902 29.8998 19.8903 30.5956 20.8544 31.1124C21.8184 31.6292 22.867 31.8876 24 31.8876C25.133 31.8876 26.1816 31.6292 27.1456 31.1124C28.1097 30.5956 28.9098 29.8998 29.5459 29.0252C29.2875 28.7867 29.1135 28.568 29.0241 28.3693C28.9346 28.1705 28.9297 28.0015 29.0092 27.8624C29.1086 27.6835 29.3372 27.6139 29.695 27.6537C30.0528 27.6934 30.4901 27.8624 31.0069 28.1606C31.5237 28.4587 31.8716 28.7569 32.0505 29.055C32.2294 29.3135 32.2592 29.542 32.1399 29.7408Z" fill="white"/>
</svg>
